<mxfile host="app.diagrams.net" modified="2021-11-05T06:39:03.570Z" agent="5.0 (Macintosh; Intel Mac OS X 10_15_7) AppleWebKit/537.36 (KHTML, like Gecko) Chrome/94.0.4606.81 Safari/537.36" etag="o2rGNvRVQv83n5gXovoU" version="15.5.9" type="github" pages="2">
  <diagram id="_BVnQLj6aTIBQBMFCru9" name="第 1 页">
    <mxGraphModel dx="2066" dy="1154" grid="1" gridSize="10" guides="1" tooltips="1" connect="1" arrows="1" fold="1" page="1" pageScale="1" pageWidth="827" pageHeight="1169" math="0" shadow="0">
      <root>
        <mxCell id="0" />
        <mxCell id="1" parent="0" />
        <mxCell id="e_ExW1gZnk2foBxhCjrW-1" value="" style="rounded=0;whiteSpace=wrap;html=1;" parent="1" vertex="1">
          <mxGeometry x="510" y="230" width="80" height="460" as="geometry" />
        </mxCell>
        <mxCell id="e_ExW1gZnk2foBxhCjrW-2" value="&lt;font style=&quot;font-size: 18px&quot;&gt;内存&lt;/font&gt;" style="text;html=1;strokeColor=none;fillColor=none;align=center;verticalAlign=middle;whiteSpace=wrap;rounded=0;" parent="1" vertex="1">
          <mxGeometry x="530" y="190" width="40" height="20" as="geometry" />
        </mxCell>
        <mxCell id="e_ExW1gZnk2foBxhCjrW-3" value="" style="endArrow=classic;html=1;entryX=0;entryY=0.469;entryDx=0;entryDy=0;entryPerimeter=0;" parent="1" target="e_ExW1gZnk2foBxhCjrW-1" edge="1">
          <mxGeometry width="50" height="50" relative="1" as="geometry">
            <mxPoint x="410" y="470" as="sourcePoint" />
            <mxPoint x="507" y="441" as="targetPoint" />
          </mxGeometry>
        </mxCell>
        <mxCell id="e_ExW1gZnk2foBxhCjrW-4" value="&lt;font style=&quot;font-size: 18px&quot;&gt;esp=x&lt;/font&gt;" style="text;html=1;strokeColor=none;fillColor=none;align=center;verticalAlign=middle;whiteSpace=wrap;rounded=0;" parent="1" vertex="1">
          <mxGeometry x="360" y="460" width="40" height="20" as="geometry" />
        </mxCell>
        <mxCell id="e_ExW1gZnk2foBxhCjrW-6" value="" style="line;strokeWidth=2;html=1;" parent="1" vertex="1">
          <mxGeometry x="510" y="440" width="80" height="10" as="geometry" />
        </mxCell>
      </root>
    </mxGraphModel>
  </diagram>
  <diagram id="hLMwS0MFiucZ_zxIyUZd" name="第 2 页">
    <mxGraphModel dx="2066" dy="1154" grid="1" gridSize="10" guides="1" tooltips="1" connect="1" arrows="1" fold="1" page="1" pageScale="1" pageWidth="827" pageHeight="1169" math="0" shadow="0">
      <root>
        <mxCell id="2xcNmD1k9eHjDyOIe8zb-0" />
        <mxCell id="2xcNmD1k9eHjDyOIe8zb-1" parent="2xcNmD1k9eHjDyOIe8zb-0" />
        <mxCell id="xyVqxSajA3LvT1eSGNq0-0" value="" style="rounded=0;whiteSpace=wrap;html=1;" vertex="1" parent="2xcNmD1k9eHjDyOIe8zb-1">
          <mxGeometry x="510" y="230" width="80" height="460" as="geometry" />
        </mxCell>
        <mxCell id="xyVqxSajA3LvT1eSGNq0-1" value="&lt;font style=&quot;font-size: 18px&quot;&gt;内存&lt;/font&gt;" style="text;html=1;strokeColor=none;fillColor=none;align=center;verticalAlign=middle;whiteSpace=wrap;rounded=0;" vertex="1" parent="2xcNmD1k9eHjDyOIe8zb-1">
          <mxGeometry x="530" y="190" width="40" height="20" as="geometry" />
        </mxCell>
        <mxCell id="xyVqxSajA3LvT1eSGNq0-2" value="" style="endArrow=classic;html=1;entryX=0;entryY=0.469;entryDx=0;entryDy=0;entryPerimeter=0;" edge="1" parent="2xcNmD1k9eHjDyOIe8zb-1" target="xyVqxSajA3LvT1eSGNq0-0">
          <mxGeometry width="50" height="50" relative="1" as="geometry">
            <mxPoint x="380" y="446" as="sourcePoint" />
            <mxPoint x="507" y="441" as="targetPoint" />
          </mxGeometry>
        </mxCell>
        <mxCell id="xyVqxSajA3LvT1eSGNq0-3" value="&lt;font style=&quot;font-size: 18px&quot;&gt;esp=x&lt;/font&gt;" style="text;html=1;strokeColor=none;fillColor=none;align=center;verticalAlign=middle;whiteSpace=wrap;rounded=0;" vertex="1" parent="2xcNmD1k9eHjDyOIe8zb-1">
          <mxGeometry x="330" y="430" width="40" height="20" as="geometry" />
        </mxCell>
        <mxCell id="xyVqxSajA3LvT1eSGNq0-4" value="" style="line;strokeWidth=2;html=1;" vertex="1" parent="2xcNmD1k9eHjDyOIe8zb-1">
          <mxGeometry x="510" y="440" width="80" height="10" as="geometry" />
        </mxCell>
      </root>
    </mxGraphModel>
  </diagram>
</mxfile>
